<?xml version="1.0" encoding="UTF-8"?>
<svg width="1280" height="720" viewBox="0 0 1280 720" xmlns="http://www.w3.org/2000/svg">
  <rect width="1280" height="720" fill="#f8fafc"/>
  
  <!-- Header -->
  <rect width="1280" height="80" fill="#0066cc"/>
  <text x="60" y="50" fill="white" font-family="Arial, sans-serif" font-size="24" font-weight="bold">Houston Mobile Notary Pros</text>
  <text x="1000" y="35" fill="white" font-family="Arial, sans-serif" font-size="14">Dashboard</text>
  <text x="1000" y="55" fill="white" font-family="Arial, sans-serif" font-size="14">Bookings</text>
  
  <!-- Main Content -->
  <rect x="60" y="120" width="560" height="300" rx="12" fill="white" stroke="#e2e8f0" stroke-width="1"/>
  <text x="80" y="150" fill="#1e293b" font-family="Arial, sans-serif" font-size="20" font-weight="bold">Service Overview</text>
  
  <!-- Stats Cards -->
  <rect x="100" y="180" width="120" height="80" rx="8" fill="#0066cc"/>
  <text x="160" y="205" text-anchor="middle" fill="white" font-family="Arial, sans-serif" font-size="14">Total Services</text>
  <text x="160" y="230" text-anchor="middle" fill="white" font-family="Arial, sans-serif" font-size="24" font-weight="bold">42</text>
  
  <rect x="240" y="180" width="120" height="80" rx="8" fill="#059669"/>
  <text x="300" y="205" text-anchor="middle" fill="white" font-family="Arial, sans-serif" font-size="14">Completed</text>
  <text x="300" y="230" text-anchor="middle" fill="white" font-family="Arial, sans-serif" font-size="24" font-weight="bold">38</text>
  
  <rect x="380" y="180" width="120" height="80" rx="8" fill="#dc2626"/>
  <text x="440" y="205" text-anchor="middle" fill="white" font-family="Arial, sans-serif" font-size="14">Pending</text>
  <text x="440" y="230" text-anchor="middle" fill="white" font-family="Arial, sans-serif" font-size="24" font-weight="bold">4</text>
  
  <!-- Side Panel -->
  <rect x="660" y="120" width="560" height="500" rx="12" fill="white" stroke="#e2e8f0" stroke-width="1"/>
  <text x="680" y="150" fill="#1e293b" font-family="Arial, sans-serif" font-size="20" font-weight="bold">Quick Actions</text>
  
  <rect x="700" y="180" width="200" height="60" rx="8" fill="#0066cc"/>
  <text x="800" y="215" text-anchor="middle" fill="white" font-family="Arial, sans-serif" font-size="16" font-weight="bold">Book New Service</text>
  
  <rect x="920" y="180" width="200" height="60" rx="8" fill="#059669"/>
  <text x="1020" y="215" text-anchor="middle" fill="white" font-family="Arial, sans-serif" font-size="16" font-weight="bold">View Calendar</text>
</svg>